# xmcd CD database file
#
# Track frame offsets:
#	150
#	11965
#	21488
#	30940
#	42943
#	51633
#	63840
#	78195
#	90358
#	101895
#	110773
#	120348
#	133903
#	143358
#	154353
#	167970
#	178183
#	187905
#	199418
#	213853
#
# Disc length: 3010 seconds
#
# Revision: 0
# Processed by: cddbd v1.5.1PL0 Copyright (c) Steve Scherf et al.
# Submitted via: CDex 1.51
#
DISCID=190bc014
DTITLE=The Zombies - I Love You
DYEAR=1993
DGENRE=Rock
TTITLE0=YOU MAKE ME FEEL GOOD
TTITLE1=LEAVE ME
TTITLE2=TELL HER NO
TTITLE3=SHE'S COMING HOME
TTITLE4=I MUST MOVE
TTITLE5=WHENEVER YOU RE READY
TTITLE6=I LOVE YOU
TTITLE7=IS THIS THE DREAM
TTITLE8=DON'T GO AWAY
TTITLE9=REMEMBER YOU
TTITLE10=JUST OUT OF REACH
TTITLE11=INDICATION
TTITLE12=HOW WE WERE BEFORE
TTITLE13=GOTTA GET A HOLD OF MYSELF
TTITLE14=GOING OUT OF MY HEAD
TTITLE15=SHE DOES EVERYTHING FOR ME
TTITLE16=I WANNA HER BACK
TTITLE17=I'LL CALL YOU MINE
TTITLE18=IMAGINE THE SWAN
TTITLE19=CONVERSATION OFF FLORAL STREET
EXTD=YEAR: 1993
EXTT0=
EXTT1=
EXTT2=
EXTT3=
EXTT4=
EXTT5=
EXTT6=
EXTT7=
EXTT8=
EXTT9=
EXTT10=
EXTT11=
EXTT12=
EXTT13=
EXTT14=
EXTT15=
EXTT16=
EXTT17=
EXTT18=
EXTT19=
PLAYORDER=
